nColumns=19
nRows=98
DataType=double
version=3
OpenSimVersion=4.1
endheader
time	ground_force_calcn_l_vx	ground_force_calcn_l_vy	ground_force_calcn_l_vz	ground_force_calcn_l_px	ground_force_calcn_l_py	ground_force_calcn_l_pz	ground_force_calcn_l_mx	ground_force_calcn_l_my	ground_force_calcn_l_mz	ground_force_calcn_r_vx	ground_force_calcn_r_vy	ground_force_calcn_r_vz	ground_force_calcn_r_px	ground_force_calcn_r_py	ground_force_calcn_r_pz	ground_force_calcn_r_mx	ground_force_calcn_r_my	ground_force_calcn_r_mz
0.596251	0	0	0	0	0	0	0	0	0	160.577	1587.51	-106.296	-0.117908	0	0.105585	0.462875	4.57612	-0.306407
0.597249	0	0	0	0	0	0	0	0	0	162.906	1574.2	-105.043	-0.117889	0	0.105606	0.46235	4.46781	-0.298127
0.598248	0	0	0	0	0	0	0	0	0	165.163	1560.73	-103.783	-0.117861	0	0.105627	0.461418	4.36022	-0.289939
0.599247	0	0	0	0	0	0	0	0	0	167.349	1547.11	-102.517	-0.117823	0	0.105647	0.460085	4.25339	-0.281845
0.600246	0	0	0	0	0	0	0	0	0	169.461	1533.33	-101.246	-0.117775	0	0.105667	0.458355	4.14734	-0.273848
0.601244	0	0	0	0	0	0	0	0	0	171.498	1519.41	-99.9699	-0.117716	0	0.105687	0.456236	4.04208	-0.265949
0.602243	0	0	0	0	0	0	0	0	0	173.461	1505.35	-98.6903	-0.117647	0	0.105705	0.453733	3.93764	-0.25815
0.603242	0	0	0	0	0	0	0	0	0	175.348	1491.15	-97.4076	-0.117565	0	0.105723	0.450852	3.83403	-0.250453
0.604241	0	0	0	0	0	0	0	0	0	177.158	1476.82	-96.1224	-0.117472	0	0.10574	0.447599	3.73127	-0.242859
0.605239	0	0	0	0	0	0	0	0	0	178.89	1462.36	-94.8354	-0.117367	0	0.105756	0.44398	3.62937	-0.235368
0.606238	0	0	0	0	0	0	0	0	0	180.544	1447.77	-93.5472	-0.117249	0	0.105772	0.440002	3.52835	-0.227982
0.607237	0	0	0	0	0	0	0	0	0	182.12	1433.07	-92.2585	-0.117117	0	0.105786	0.43567	3.42821	-0.220702
0.608236	0	0	0	0	0	0	0	0	0	183.616	1418.25	-90.9699	-0.116972	0	0.105798	0.430991	3.32898	-0.213528
0.609234	0	0	0	0	0	0	0	0	0	185.033	1403.33	-89.6819	-0.116812	0	0.10581	0.425971	3.23065	-0.20646
0.610233	0	0	0	0	0	0	0	0	0	186.369	1388.29	-88.3953	-0.116638	0	0.10582	0.420616	3.13324	-0.199499
0.611232	0	0	0	0	0	0	0	0	0	187.624	1373.16	-87.1104	-0.116449	0	0.105828	0.414932	3.03675	-0.192645
0.61223	0	0	0	0	0	0	0	0	0	188.799	1357.93	-85.828	-0.116244	0	0.105835	0.408925	2.94119	-0.185898
0.613229	0	0	0	0	0	0	0	0	0	189.892	1342.61	-84.5485	-0.116023	0	0.10584	0.402603	2.84657	-0.179257
0.614228	0	0	0	0	0	0	0	0	0	190.904	1327.21	-83.2724	-0.115785	0	0.105843	0.39597	2.75288	-0.172722
0.615227	0	0	0	0	0	0	0	0	0	191.834	1311.72	-82.0002	-0.115529	0	0.105843	0.389032	2.66013	-0.166294
0.616225	0	0	0	0	0	0	0	0	0	192.682	1296.16	-80.7324	-0.115257	0	0.105842	0.381797	2.56833	-0.15997
0.617224	0	0	0	0	0	0	0	0	0	193.448	1280.53	-79.4696	-0.114966	0	0.105838	0.374269	2.47748	-0.153752
0.618223	0	0	0	0	0	0	0	0	0	194.132	1264.83	-78.212	-0.114656	0	0.105831	0.366455	2.38757	-0.147637
0.619222	0	0	0	0	0	0	0	0	0	194.735	1249.07	-76.9601	-0.114327	0	0.105822	0.358361	2.29861	-0.141626
0.62022	0	0	0	0	0	0	0	0	0	195.256	1233.26	-75.7144	-0.113979	0	0.10581	0.349993	2.2106	-0.135717
0.621219	0	0	0	0	0	0	0	0	0	195.695	1217.39	-74.4752	-0.11361	0	0.105795	0.341357	2.12354	-0.129909
0.622218	0	0	0	0	0	0	0	0	0	196.053	1201.48	-73.2428	-0.11322	0	0.105777	0.332458	2.03742	-0.124202
0.623217	0	0	0	0	0	0	0	0	0	196.329	1185.53	-72.0177	-0.11281	0	0.105756	0.323304	1.95225	-0.118594
0.624215	0	0	0	0	0	0	0	0	0	196.525	1169.54	-70.8002	-0.112377	0	0.105731	0.313899	1.86803	-0.113085
0.625214	0	0	0	0	0	0	0	0	0	196.641	1153.52	-69.5905	-0.111923	0	0.105702	0.304249	1.78476	-0.107673
0.626213	0	0	0	0	0	0	0	0	0	196.676	1137.47	-68.389	-0.111445	0	0.10567	0.294362	1.70243	-0.102357
0.627212	0	0	0	0	0	0	0	0	0	196.632	1121.4	-67.1959	-0.110945	0	0.105633	0.284243	1.62105	-0.0971355
0.62821	0	0	0	0	0	0	0	0	0	196.509	1105.32	-66.0115	-0.11042	0	0.105593	0.273898	1.54061	-0.092008
0.629209	0	0	0	0	0	0	0	0	0	196.307	1089.22	-64.836	-0.109872	0	0.105548	0.263333	1.46112	-0.0869733
0.630208	0	0	0	0	0	0	0	0	0	196.027	1073.12	-63.6697	-0.109299	0	0.105498	0.252556	1.38257	-0.08203
0.631207	0	0	0	0	0	0	0	0	0	195.671	1057.01	-62.5127	-0.1087	0	0.105444	0.241572	1.30497	-0.0771771
0.632205	0	0	0	0	0	0	0	0	0	195.238	1040.91	-61.3653	-0.108076	0	0.105385	0.230388	1.22832	-0.0724135
0.633204	0	0	0	0	0	0	0	0	0	194.729	1024.82	-60.2276	-0.107426	0	0.10532	0.219011	1.15262	-0.067738
0.634203	0	0	0	0	0	0	0	0	0	194.145	1008.74	-59.0998	-0.106749	0	0.105251	0.207449	1.07787	-0.0631497
0.635202	0	0	0	0	0	0	0	0	0	193.487	992.68	-57.9821	-0.106046	0	0.105176	0.195707	1.00407	-0.0586475
0.6362	0	0	0	0	0	0	0	0	0	192.756	976.641	-56.8746	-0.105314	0	0.105095	0.183795	0.931236	-0.0542304
0.637199	0	0	0	0	0	0	0	0	0	191.953	960.629	-55.7773	-0.104555	0	0.105008	0.171719	0.859366	-0.0498976
0.638198	0	0	0	0	0	0	0	0	0	191.079	944.65	-54.6904	-0.103768	0	0.104915	0.159487	0.788465	-0.0456481
0.639196	0	0	0	0	0	0	0	0	0	190.134	928.706	-53.6141	-0.102951	0	0.104816	0.147107	0.71854	-0.0414812
0.640195	0	0	0	0	0	0	0	0	0	189.121	912.804	-52.5483	-0.102106	0	0.104711	0.134588	0.649598	-0.0373961
0.641194	0	0	0	0	0	0	0	0	0	188.04	896.947	-51.4933	-0.10123	0	0.104599	0.121939	0.581647	-0.0333921
0.642193	0	0	0	0	0	0	0	0	0	186.891	881.14	-50.4489	-0.100325	0	0.10448	0.109168	0.514697	-0.0294685
0.643191	0	0	0	0	0	0	0	0	0	185.677	865.388	-49.4154	-0.0993895	0	0.104354	0.0962853	0.448757	-0.0256249
0.64419	0	0	0	0	0	0	0	0	0	184.399	849.694	-48.3926	-0.0984231	0	0.10422	0.0833001	0.383839	-0.0218608
0.645189	0	0	0	0	0	0	0	0	0	183.058	834.063	-47.3808	-0.0974256	0	0.10408	0.0702224	0.319953	-0.0181756
0.646188	0	0	0	0	0	0	0	0	0	181.655	818.499	-46.3798	-0.0963965	0	0.103931	0.0570627	0.257113	-0.0145692
0.647186	0	0	0	0	0	0	0	0	0	180.191	803.006	-45.3898	-0.0953356	0	0.103775	0.0438317	0.195332	-0.0110411
0.648185	0	0	0	0	0	0	0	0	0	178.668	787.589	-44.4108	-0.0942426	0	0.103611	0.0305405	0.134625	-0.0075913
0.649184	0	0	0	0	0	0	0	0	0	177.088	772.251	-43.4427	-0.0931172	0	0.103438	0.0172004	0.0750081	-0.00421955
0.650183	0	0	0	0	0	0	0	0	0	175.451	756.996	-42.4856	-0.0919589	0	0.103258	0.00382338	0.0164962	-0.000925833
0.651181	0	0	0	0	0	0	0	0	0	173.76	741.828	-41.5394	-0.0907677	0	0.103068	-0.00957847	-0.0408931	0.00228985
0.65218	0	0	0	0	0	0	0	0	0	172.015	726.75	-40.6042	-0.0895431	0	0.10287	-0.0229926	-0.0971423	0.00542744
0.653179	0	0	0	0	0	0	0	0	0	170.218	711.767	-39.68	-0.088285	0	0.102663	-0.0364062	-0.152233	0.00848678
0.654178	0	0	0	0	0	0	0	0	0	168.37	696.883	-38.7668	-0.0869931	0	0.102447	-0.049806	-0.206147	0.0114677
0.655176	0	0	0	0	0	0	0	0	0	166.474	682.099	-37.8644	-0.0856672	0	0.102222	-0.0631786	-0.258863	0.0143699
0.656175	0	0	0	0	0	0	0	0	0	164.531	667.421	-36.973	-0.0843071	0	0.101987	-0.0765101	-0.310364	0.0171932
0.657174	0	0	0	0	0	0	0	0	0	162.542	652.851	-36.0925	-0.0829126	0	0.101743	-0.0897865	-0.360628	0.0199371
0.658173	0	0	0	0	0	0	0	0	0	160.509	638.393	-35.2229	-0.0814836	0	0.10149	-0.102993	-0.409636	0.0226014
0.659171	0	0	0	0	0	0	0	0	0	158.433	624.05	-34.3641	-0.0800199	0	0.101226	-0.116116	-0.457368	0.0251856
0.66017	0	0	0	0	0	0	0	0	0	156.317	609.824	-33.5162	-0.0785214	0	0.100953	-0.12914	-0.503802	0.0276892
0.661169	0	0	0	0	0	0	0	0	0	154.162	595.72	-32.6791	-0.0769879	0	0.100669	-0.142051	-0.548919	0.0301118
0.662168	0	0	0	0	0	0	0	0	0	151.969	581.739	-31.8528	-0.0754195	0	0.100376	-0.154832	-0.5927	0.0324529
0.663166	0	0	0	0	0	0	0	0	0	149.74	567.885	-31.0372	-0.0738159	0	0.100072	-0.16747	-0.635123	0.034712
0.664165	0	0	0	0	0	0	0	0	0	147.478	554.161	-30.2324	-0.0721773	0	0.0997577	-0.179948	-0.676171	0.0368887
0.665164	0	0	0	0	0	0	0	0	0	145.183	540.569	-29.4383	-0.0705035	0	0.0994331	-0.192252	-0.715824	0.0389824
0.666162	0	0	0	0	0	0	0	0	0	142.857	527.111	-28.6549	-0.0687946	0	0.099098	-0.204365	-0.754064	0.0409926
0.667161	0	0	0	0	0	0	0	0	0	140.502	513.791	-27.8822	-0.0670506	0	0.0987523	-0.216273	-0.790874	0.0429188
0.66816	0	0	0	0	0	0	0	0	0	138.12	500.611	-27.1201	-0.0652715	0	0.0983961	-0.227961	-0.826236	0.0447605
0.669159	0	0	0	0	0	0	0	0	0	135.712	487.572	-26.3686	-0.0634574	0	0.0980291	-0.239412	-0.860135	0.0465173
0.670157	0	0	0	0	0	0	0	0	0	133.281	474.678	-25.6278	-0.0616084	0	0.0976514	-0.250613	-0.892555	0.0481888
0.671156	0	0	0	0	0	0	0	0	0	130.827	461.931	-24.8975	-0.0597246	0	0.097263	-0.261547	-0.92348	0.0497744
0.672155	0	0	0	0	0	0	0	0	0	128.353	449.332	-24.1778	-0.0578062	0	0.0968639	-0.272199	-0.952898	0.0512738
0.673154	0	0	0	0	0	0	0	0	0	125.861	436.884	-23.4686	-0.0558533	0	0.0964539	-0.282555	-0.980795	0.0526866
0.674152	0	0	0	0	0	0	0	0	0	123.351	424.588	-22.77	-0.0538661	0	0.0960332	-0.2926	-1.00716	0.0540124
0.675151	0	0	0	0	0	0	0	0	0	120.827	412.446	-22.0819	-0.0518449	0	0.0956018	-0.302319	-1.03198	0.0552509
0.67615	0	0	0	0	0	0	0	0	0	118.288	400.461	-21.4044	-0.0497899	0	0.0951597	-0.311697	-1.05524	0.0564018
0.677149	0	0	0	0	0	0	0	0	0	115.738	388.634	-20.7373	-0.0477015	0	0.0947069	-0.32072	-1.07693	0.0574647
0.678147	0	0	0	0	0	0	0	0	0	113.178	376.966	-20.0808	-0.0455798	0	0.0942434	-0.329373	-1.09705	0.0584395
0.679146	0	0	0	0	0	0	0	0	0	110.61	365.459	-19.4348	-0.0434252	0	0.0937694	-0.337643	-1.11559	0.0593258
0.680145	0	0	0	0	0	0	0	0	0	108.035	354.115	-18.7992	-0.0412382	0	0.0932849	-0.345515	-1.13253	0.0601235
0.681144	0	0	0	0	0	0	0	0	0	105.455	342.935	-18.1742	-0.0390191	0	0.09279	-0.352976	-1.14786	0.0608324
0.682142	0	0	0	0	0	0	0	0	0	102.871	331.92	-17.5597	-0.0367683	0	0.0922849	-0.36001	-1.16159	0.0614523
0.683141	0	0	0	0	0	0	0	0	0	100.286	321.071	-16.9557	-0.0344864	0	0.0917695	-0.366604	-1.1737	0.0619831
0.68414	0	0	0	0	0	0	0	0	0	97.7007	310.391	-16.3622	-0.0321737	0	0.091244	-0.372745	-1.18419	0.0624247
0.685139	0	0	0	0	0	0	0	0	0	95.1171	299.879	-15.7793	-0.0298308	0	0.0907086	-0.378418	-1.19305	0.062777
0.686137	0	0	0	0	0	0	0	0	0	92.5368	289.538	-15.2069	-0.0274583	0	0.0901634	-0.38361	-1.20028	0.06304
0.687136	0	0	0	0	0	0	0	0	0	89.9614	279.368	-14.645	-0.0250568	0	0.0896085	-0.388309	-1.20586	0.0632137
0.688135	0	0	0	0	0	0	0	0	0	87.3924	269.369	-14.0937	-0.0226268	0	0.0890442	-0.392499	-1.2098	0.0632981
0.689134	0	0	0	0	0	0	0	0	0	84.8316	259.544	-13.553	-0.020169	0	0.0884706	-0.396169	-1.21209	0.0632935
0.690132	0	0	0	0	0	0	0	0	0	82.2804	249.893	-13.0229	-0.0176841	0	0.0878878	-0.399305	-1.21272	0.0631999
0.691131	0	0	0	0	0	0	0	0	0	79.7405	240.416	-12.5034	-0.0151728	0	0.0872962	-0.401894	-1.21171	0.0630176
0.69213	0	0	0	0	0	0	0	0	0	77.2134	231.116	-11.9946	-0.0126359	0	0.0866958	-0.403925	-1.20903	0.062747
0.693128	0	0	0	0	0	0	0	0	0	74.7008	221.991	-11.4964	-0.010074	0	0.0860869	-0.405386	-1.2047	0.0623884
